<?xml version="1.0" standalone="no"?>
<!DOCTYPE svg PUBLIC "-//W3C//DTD SVG 20010904//EN"
 "http://www.w3.org/TR/2001/REC-SVG-20010904/DTD/svg10.dtd">
<svg version="1.0" xmlns="http://www.w3.org/2000/svg"
 width="599.000000pt" height="599.000000pt" viewBox="0 0 599.000000 599.000000"
 preserveAspectRatio="xMidYMid meet">
<metadata>
Created by potrace 1.14, written by Peter Selinger 2001-2017
</metadata>
<g transform="translate(0.000000,599.000000) scale(0.100000,-0.100000)"
fill="#000000" stroke="none">
<path d="M2911 4395 c-73 -78 -146 -191 -166 -259 -17 -57 -19 -146 -5 -196 9
-33 76 -149 91 -160 4 -3 40 -45 79 -95 97 -120 132 -195 132 -280 0 -36 2
-65 5 -65 19 0 102 116 140 195 35 74 38 86 38 170 0 85 -3 96 -37 165 -20 41
-69 119 -107 173 -101 139 -132 211 -125 296 2 29 11 65 19 81 32 62 11 54
-64 -25z"/>
<path d="M2511 4028 c-91 -122 -127 -228 -125 -369 3 -178 102 -361 300 -552
39 -37 81 -75 93 -83 19 -14 22 -13 41 18 61 99 91 191 85 264 -8 115 -47 193
-180 364 -106 137 -149 210 -160 271 -9 45 -9 92 0 118 11 37 -13 23 -54 -31z"/>
<path d="M3350 3960 c0 -9 9 -41 20 -71 16 -46 34 -152 33 -194 -2 -89 -37
-205 -84 -283 -25 -41 -96 -137 -119 -163 -38 -40 -257 -273 -269 -286 -16
-17 -14 -20 24 -28 228 -44 523 103 630 315 82 162 63 348 -55 522 -51 75
-180 209 -180 188z"/>
<path d="M1252 2456 c-3 -6 -1 -11 4 -13 5 -2 20 -9 34 -16 l25 -13 3 -206 c2
-178 0 -208 -14 -222 -8 -9 -24 -16 -34 -16 -10 0 -21 -7 -24 -15 -5 -14 10
-15 116 -13 86 2 123 7 126 16 2 8 -7 12 -25 12 -58 0 -68 18 -68 122 l0 93
30 -2 c60 -4 73 -12 85 -49 20 -60 33 -35 33 66 1 100 -10 122 -34 68 -10 -24
-25 -36 -51 -45 -65 -21 -69 -14 -66 101 l3 101 80 1 c98 1 122 -9 142 -58 8
-21 19 -38 24 -38 10 0 10 113 0 127 -8 11 -382 10 -389 -1z"/>
<path d="M1904 2461 c-12 -12 -2 -29 15 -26 11 2 27 -5 36 -15 15 -16 18 -46
20 -187 2 -98 8 -181 15 -198 27 -69 81 -98 185 -97 97 0 149 32 180 107 4 11
11 97 14 192 4 104 10 176 17 183 6 6 21 12 33 13 13 1 21 7 19 16 -2 11 -21
14 -78 13 -121 -1 -120 0 -113 -18 3 -8 12 -13 19 -10 7 3 16 1 19 -5 4 -5 10
-7 15 -4 17 10 23 -35 25 -180 2 -172 -3 -199 -45 -237 -57 -52 -172 -33 -206
35 -14 26 -17 62 -17 196 0 159 1 165 23 183 12 10 29 18 37 18 8 0 13 5 11
12 -3 9 -37 12 -112 13 -59 0 -110 -2 -112 -4z"/>
<path d="M2720 2462 c-19 -7 -10 -28 11 -29 42 -3 44 -16 44 -227 0 -215 -3
-231 -47 -238 -12 -2 -23 -9 -26 -16 -3 -10 17 -12 89 -10 63 2 94 7 97 16 2
7 -6 12 -22 12 -40 0 -47 33 -44 218 l3 166 110 -145 c60 -79 113 -148 118
-154 4 -5 26 -35 48 -65 40 -54 63 -68 76 -47 4 6 7 114 7 240 1 210 3 230 19
242 11 7 27 12 38 10 12 -2 19 2 19 11 0 15 2 15 -105 17 -41 1 -75 -1 -75 -5
0 -5 0 -11 0 -15 0 -4 7 -8 16 -9 41 -6 45 -25 47 -192 1 -89 -1 -162 -5 -162
-4 0 -17 15 -29 33 -13 17 -26 34 -29 37 -3 3 -57 75 -121 160 l-116 155 -56
0 c-32 0 -61 -1 -67 -3z"/>
<path d="M3553 2462 c-23 -3 -32 -21 -13 -23 6 -1 15 -2 21 -3 33 -4 39 -38
39 -237 0 -214 -4 -229 -56 -229 -15 0 -24 -6 -24 -15 0 -14 21 -16 149 -14
170 1 218 10 279 51 175 119 119 401 -90 458 -43 11 -251 19 -305 12z m303
-50 c37 -19 83 -80 95 -124 34 -126 0 -243 -83 -286 -77 -40 -168 -29 -188 22
-8 23 -13 383 -4 397 7 12 156 4 180 -9z"/>
<path d="M4280 2462 c-18 -6 -10 -19 18 -31 21 -9 46 -41 89 -114 99 -166 102
-173 99 -249 -3 -74 -16 -98 -52 -98 -14 0 -24 -6 -24 -14 0 -11 24 -14 110
-15 89 -2 110 1 110 12 0 8 -13 17 -29 20 -20 4 -31 14 -35 32 -4 14 -4 30 -1
35 4 6 2 10 -2 10 -5 0 -7 23 -6 52 3 44 15 71 75 172 71 120 100 156 123 156
7 0 15 7 19 15 4 10 -1 15 -17 16 -138 4 -138 4 -135 -11 2 -8 10 -15 18 -15
35 0 19 -48 -58 -181 -19 -31 -37 -53 -42 -48 -11 12 -104 174 -113 196 -7 19
26 44 43 33 6 -3 10 -1 10 4 0 6 0 14 0 18 0 7 -180 11 -200 5z"/>
</g>
</svg>
